<?xml version="1.0" encoding="utf-8"?>
<svg xmlns="http://www.w3.org/2000/svg" xmlns:xlink="http://www.w3.org/1999/xlink" style="margin: auto; background: none; display: block; shape-rendering: auto;" width="40px" height="40px" viewBox="0 0 100 100" preserveAspectRatio="xMidYMid">
<g transform="rotate(0 50 50)">
  <rect x="47" y="24" rx="3" ry="6" width="6" height="12" fill="#f81b24">
    <animate attributeName="opacity" values="1;0" keyTimes="0;1" dur="0.4081632653061225s" begin="-0.3741496598639456s" repeatCount="indefinite"></animate>
  </rect>
</g><g transform="rotate(30 50 50)">
  <rect x="47" y="24" rx="3" ry="6" width="6" height="12" fill="#f81b24">
    <animate attributeName="opacity" values="1;0" keyTimes="0;1" dur="0.4081632653061225s" begin="-0.3401360544217687s" repeatCount="indefinite"></animate>
  </rect>
</g><g transform="rotate(60 50 50)">
  <rect x="47" y="24" rx="3" ry="6" width="6" height="12" fill="#f81b24">
    <animate attributeName="opacity" values="1;0" keyTimes="0;1" dur="0.4081632653061225s" begin="-0.30612244897959184s" repeatCount="indefinite"></animate>
  </rect>
</g><g transform="rotate(90 50 50)">
  <rect x="47" y="24" rx="3" ry="6" width="6" height="12" fill="#f81b24">
    <animate attributeName="opacity" values="1;0" keyTimes="0;1" dur="0.4081632653061225s" begin="-0.272108843537415s" repeatCount="indefinite"></animate>
  </rect>
</g><g transform="rotate(120 50 50)">
  <rect x="47" y="24" rx="3" ry="6" width="6" height="12" fill="#f81b24">
    <animate attributeName="opacity" values="1;0" keyTimes="0;1" dur="0.4081632653061225s" begin="-0.2380952380952381s" repeatCount="indefinite"></animate>
  </rect>
</g><g transform="rotate(150 50 50)">
  <rect x="47" y="24" rx="3" ry="6" width="6" height="12" fill="#f81b24">
    <animate attributeName="opacity" values="1;0" keyTimes="0;1" dur="0.4081632653061225s" begin="-0.20408163265306123s" repeatCount="indefinite"></animate>
  </rect>
</g><g transform="rotate(180 50 50)">
  <rect x="47" y="24" rx="3" ry="6" width="6" height="12" fill="#f81b24">
    <animate attributeName="opacity" values="1;0" keyTimes="0;1" dur="0.4081632653061225s" begin="-0.17006802721088435s" repeatCount="indefinite"></animate>
  </rect>
</g><g transform="rotate(210 50 50)">
  <rect x="47" y="24" rx="3" ry="6" width="6" height="12" fill="#f81b24">
    <animate attributeName="opacity" values="1;0" keyTimes="0;1" dur="0.4081632653061225s" begin="-0.1360544217687075s" repeatCount="indefinite"></animate>
  </rect>
</g><g transform="rotate(240 50 50)">
  <rect x="47" y="24" rx="3" ry="6" width="6" height="12" fill="#f81b24">
    <animate attributeName="opacity" values="1;0" keyTimes="0;1" dur="0.4081632653061225s" begin="-0.10204081632653061s" repeatCount="indefinite"></animate>
  </rect>
</g><g transform="rotate(270 50 50)">
  <rect x="47" y="24" rx="3" ry="6" width="6" height="12" fill="#f81b24">
    <animate attributeName="opacity" values="1;0" keyTimes="0;1" dur="0.4081632653061225s" begin="-0.06802721088435375s" repeatCount="indefinite"></animate>
  </rect>
</g><g transform="rotate(300 50 50)">
  <rect x="47" y="24" rx="3" ry="6" width="6" height="12" fill="#f81b24">
    <animate attributeName="opacity" values="1;0" keyTimes="0;1" dur="0.4081632653061225s" begin="-0.034013605442176874s" repeatCount="indefinite"></animate>
  </rect>
</g><g transform="rotate(330 50 50)">
  <rect x="47" y="24" rx="3" ry="6" width="6" height="12" fill="#f81b24">
    <animate attributeName="opacity" values="1;0" keyTimes="0;1" dur="0.4081632653061225s" begin="0s" repeatCount="indefinite"></animate>
  </rect>
</g>
<!-- [ldio] generated by https://loading.io/ --></svg>