<svg id="Capa_1" enable-background="new 0 0 512 512" height="512" viewBox="0 0 512 512" width="512" xmlns="http://www.w3.org/2000/svg"><g><g><g><g><g><g><path d="m209.594 150.578h-202.094v-78.617c0-16.66 13.506-30.166 30.166-30.166h126.262c14.486 0 26.927 10.297 29.634 24.527z" fill="#d1bc4a"/><path d="m474.334 470.206h-436.668c-16.66 0-30.166-13.506-30.166-30.166v-299.542c0-16.66 13.506-30.166 30.166-30.166h436.668c16.66 0 30.166 13.506 30.166 30.166v299.541c0 16.661-13.506 30.167-30.166 30.167z" fill="#eadb55"/></g></g><g><g><path d="m308.806 386.662h-105.612c-8.756 0-15.853-7.098-15.853-15.853v-77.18c0-8.756 7.098-15.853 15.853-15.853h105.612c8.756 0 15.853 7.098 15.853 15.853v77.18c0 8.755-7.098 15.853-15.853 15.853z" fill="#df705d"/><path d="m308.806 277.775h-36.775v108.887h36.775c8.755 0 15.853-7.098 15.853-15.853v-77.18c0-8.756-7.098-15.854-15.853-15.854z" fill="#cf5748"/></g><circle cx="256" cy="324.106" fill="#676e84" r="15.379"/></g><path d="m474.334 110.332h-22.583v298.993c0 16.66-13.506 30.166-30.166 30.166h-414.085v.548c0 16.66 13.506 30.166 30.166 30.166h436.668c16.66 0 30.166-13.506 30.166-30.166v-299.541c0-16.66-13.506-30.166-30.166-30.166z" fill="#d1bc4a"/></g></g></g><g><path d="m316.129 271.451v-9.896c0-33.155-26.974-60.128-60.129-60.128s-60.129 26.974-60.129 60.128v9.896c-9.301 3.079-16.03 11.857-16.03 22.177v77.18c0 12.877 10.477 23.353 23.354 23.353h105.611c12.877 0 23.354-10.476 23.354-23.353v-77.18c-.001-10.32-6.73-19.098-16.031-22.177zm-60.129-55.024c24.884 0 45.129 20.245 45.129 45.128v8.72h-90.258v-8.72c0-24.884 20.245-45.128 45.129-45.128zm61.159 154.382c0 4.606-3.747 8.353-8.354 8.353h-105.611c-4.606 0-8.354-3.747-8.354-8.353v-77.18c0-4.606 3.747-8.354 8.354-8.354h105.611c4.606 0 8.354 3.748 8.354 8.354z"/><path d="m256 301.227c-12.615 0-22.879 10.264-22.879 22.879 0 9.99 6.436 18.504 15.379 21.616v11.435c0 4.142 3.357 7.5 7.5 7.5s7.5-3.358 7.5-7.5v-11.435c8.943-3.112 15.379-11.626 15.379-21.616 0-12.615-10.264-22.879-22.879-22.879zm0 30.758c-4.345 0-7.879-3.535-7.879-7.879s3.534-7.879 7.879-7.879 7.879 3.535 7.879 7.879-3.534 7.879-7.879 7.879z"/><path d="m7.5 90.262c4.143 0 7.5-3.358 7.5-7.5v-10.802c0-12.498 10.168-22.666 22.666-22.666h126.262c10.87 0 20.234 7.75 22.267 18.43l1.715 9.01c.774 4.07 4.708 6.741 8.771 5.965 4.069-.774 6.74-4.701 5.966-8.77l-1.715-9.01c-3.377-17.746-18.939-30.625-37.003-30.625h-126.263c-20.77 0-37.666 16.897-37.666 37.666v10.802c0 4.142 3.357 7.5 7.5 7.5z"/><path d="m474.334 102.832h-436.668c-20.77 0-37.666 16.897-37.666 37.666v299.542c0 20.769 16.896 37.666 37.666 37.666h436.668c20.77 0 37.666-16.897 37.666-37.666v-299.542c0-20.769-16.896-37.666-37.666-37.666zm22.666 337.208c0 12.498-10.168 22.666-22.666 22.666h-436.668c-12.498 0-22.666-10.168-22.666-22.666v-299.542c0-12.498 10.168-22.666 22.666-22.666h436.668c12.498 0 22.666 10.168 22.666 22.666z"/></g></g></svg>