<?xml version="1.0"?>
<svg xmlns="http://www.w3.org/2000/svg" id="Line" width="512" height="512" viewBox="0 0 64 64"><path d="M38,13A25,25,0,1,0,63,38,25.028,25.028,0,0,0,38,13ZM52,40H40V52a2,2,0,0,1-4,0V40H24a2,2,0,0,1,0-4H36V24a2,2,0,0,1,4,0V36H52a2,2,0,0,1,0,4Z" style="fill:#c4a2fc"/><path d="M40,21a11.03,11.03,0,0,0-10.78,8.8.994.994,0,0,0,0,.189l-1.46.438A3.868,3.868,0,0,0,26,31.549a3.866,3.866,0,0,0-1.761-1.121L22.78,29.99a.994.994,0,0,0,0-.189A11,11,0,0,0,1,32V48a3,3,0,0,0,3,3H20a3,3,0,0,0,3-3V38.005a3.757,3.757,0,0,0,3-1.288,3.767,3.767,0,0,0,3,1.288V48a3,3,0,0,0,3,3H48a3,3,0,0,0,3-3V32A11.013,11.013,0,0,0,40,21ZM20,49H4a1,1,0,0,1-1-1V32a9,9,0,0,1,17.6-2.666l-.608-.182a3.873,3.873,0,1,0-2.227,7.42l3.24.973V48A1,1,0,0,1,20,49Zm2.588-13.067-4.253-1.277a1.873,1.873,0,1,1,1.077-3.588l4.253,1.276a1.874,1.874,0,0,1-1.077,3.589ZM27,34.138a1.862,1.862,0,0,1,1.335-1.794c4.3-1.265,4.317-1.357,4.8-1.357a1.874,1.874,0,0,1,.533,3.669l-4.253,1.277A1.874,1.874,0,0,1,27,34.138ZM49,48a1,1,0,0,1-1,1H32a1,1,0,0,1-1-1V37.545l3.239-.973a3.873,3.873,0,1,0-2.225-7.42l-.609.182A9,9,0,0,1,49,32Z" style="fill:#151a6a"/><path d="M12,19a9,9,0,1,0-9-9A9.011,9.011,0,0,0,12,19ZM12,3a6.986,6.986,0,0,1,5.955,10.662,6.675,6.675,0,0,1-3.125-2.221,1,1,0,0,0-1.662,1.114,8.522,8.522,0,0,0,3.413,2.725A7,7,0,1,1,12,3Z" style="fill:#151a6a"/><path d="M40,19a9,9,0,1,0-9-9A9.01,9.01,0,0,0,40,19ZM40,3a7,7,0,1,1-4.581,12.28,8.522,8.522,0,0,0,3.413-2.725,1,1,0,0,0-1.661-1.114,6.7,6.7,0,0,1-3.126,2.221A6.986,6.986,0,0,1,40,3Z" style="fill:#151a6a"/></svg>
